# xmcd
#
# Track frame offsets:
#	150
#	15567
#	33132
#	46000
#	65460
#	76395
#	92167
#	103502
#	115270
#	129125
#	139147
#	152365
#	165082
#	177767
#
# Disc length: 2505 seconds
#
# Revision: 3
# Processed by: cddbd v1.5.2PL0 Copyright (c) Steve Scherf et al.
# Submitted via: EZCDAudioConverter 6.0.5.1
#
DISCID=9609c70e
DTITLE=Bobby Bare - For The Good Times - The Best Of Bobby Bare
DYEAR=1994
DGENRE=Country
TTITLE0=For The Good Times
TTITLE1=Sylvia's Mother
TTITLE2=Lovin' Her Was Easier (Than Anything I'll Ever Do Again)
TTITLE3=Me And Bobby McGee
TTITLE4=Don't It Make You Want To Go Home
TTITLE5=Leaving On A Jet Plane
TTITLE6=Hello Darlin'
TTITLE7=That's How I Got To Memphis
TTITLE8=Mrs Jones, Your Daughter Cried All Night
TTITLE9=Woman You Have Been A Friend To Me
TTITLE10=I Took A Memory To Lunch
TTITLE11=When Love Is Gone
TTITLE12=The Year That Clayton Delaney Died
TTITLE13=Help Me Make It Through The Night
EXTD=
EXTT0=
EXTT1=
EXTT2=
EXTT3=
EXTT4=
EXTT5=
EXTT6=
EXTT7=
EXTT8=
EXTT9=
EXTT10=
EXTT11=
EXTT12=
EXTT13=
PLAYORDER=
